<?xml version="1.0" standalone="no"?>
<!DOCTYPE svg PUBLIC "-//W3C//DTD SVG 20010904//EN"
 "http://www.w3.org/TR/2001/REC-SVG-20010904/DTD/svg10.dtd">
<svg version="1.0" xmlns="http://www.w3.org/2000/svg"
 width="64.000000pt" height="65.000000pt" viewBox="0 0 791.000000 227.000000"
 preserveAspectRatio="xMidYMid meet">

<g transform="translate(0.000000,227.000000) scale(0.100000,-0.100000)"
fill="#000000" stroke="none">
<path d="M5170 1804 c-286 -62 -446 -331 -427 -718 16 -308 147 -507 384 -582
75 -24 245 -29 326 -10 148 35 248 112 335 257 l22 36 -78 45 c-42 25 -93 55
-113 67 l-35 21 -38 -58 c-63 -98 -150 -141 -262 -129 -78 8 -139 41 -179 96
-53 72 -65 133 -65 321 0 188 12 249 65 321 50 69 108 94 216 94 78 0 90 -3
134 -30 34 -21 57 -46 79 -86 l31 -56 110 58 c61 32 115 60 120 62 16 7 -36
96 -92 157 -92 101 -222 150 -388 149 -44 0 -109 -7 -145 -15z"/>
<path d="M430 1151 l0 -651 140 0 140 0 0 234 0 234 218 4 c196 4 223 6 274
27 109 42 200 151 227 272 13 56 13 171 1 227 -28 119 -120 231 -225 273 -59
23 -68 24 -417 27 l-358 3 0 -650z m661 383 c17 -8 37 -30 45 -49 18 -44 18
-156 0 -200 -24 -58 -52 -65 -251 -65 l-175 0 0 165 0 165 175 0 c140 0 182
-3 206 -16z"/>
<path d="M2490 1675 l0 -125 180 0 180 0 0 -525 0 -525 140 0 140 0 0 525 0
525 175 0 175 0 0 125 0 125 -495 0 -495 0 0 -125z"/>
<path d="M3690 1150 l0 -650 440 0 440 0 0 125 0 125 -300 0 -300 0 0 140 0
140 258 2 257 3 3 123 3 122 -261 0 -260 0 0 135 0 135 300 0 300 0 0 125 0
125 -440 0 -440 0 0 -650z"/>
<path d="M6010 1150 l0 -650 140 0 140 0 0 265 0 265 250 0 250 0 0 -265 0
-265 140 0 140 0 0 650 0 650 -140 0 -140 0 0 -260 0 -260 -250 0 -250 0 0
260 0 260 -140 0 -140 0 0 -650z"/>
<path d="M1630 1160 l0 -120 400 0 400 0 0 120 0 120 -400 0 -400 0 0 -120z"/>
<path d="M7217 684 c-11 -12 3 -24 29 -24 23 0 24 -2 24 -80 0 -73 2 -80 20
-80 17 0 19 8 22 78 3 76 3 77 31 80 15 2 27 9 27 18 0 11 -16 14 -73 14 -41
0 -77 -3 -80 -6z"/>
<path d="M7394 677 c-3 -8 -4 -49 -2 -93 3 -66 6 -79 21 -82 15 -3 17 5 17 65
l1 68 26 -49 25 -50 24 40 c13 21 24 42 24 47 0 4 3 7 8 7 4 0 5 -29 4 -65 -3
-60 -2 -65 17 -65 20 0 21 5 21 95 0 94 0 95 -25 95 -19 0 -29 -10 -45 -40
-11 -22 -22 -40 -25 -40 -3 0 -14 18 -25 40 -21 41 -55 55 -66 27z"/>
</g>
</svg>
